<svg width="54" height="54" viewBox="0 0 54 54" fill="none" xmlns="http://www.w3.org/2000/svg">
<circle cx="27" cy="27" r="27" fill="#FF7A50"/>
<path d="M33.6913 14H21.3086C17.2786 14 14 17.1572 14 21.038V32.9622C14 36.8428 17.2786 40 21.3086 40H33.6915C37.7214 40 40.9999 36.8428 40.9999 32.9622V21.038C40.9999 17.1572 37.7214 14 33.6913 14V14ZM39.4171 32.9622C39.4171 36.0023 36.8486 38.4757 33.6913 38.4757H21.3086C18.1514 38.4757 15.5829 36.0023 15.5829 32.9622V21.038C15.5829 17.9976 18.1514 15.5242 21.3086 15.5242H33.6915C36.8486 15.5242 39.4171 17.9976 39.4171 21.038V32.9622Z" fill="white"/>
<path d="M27.4998 19.8906C23.4289 19.8906 20.1172 23.0797 20.1172 26.9998C20.1172 30.9199 23.4289 34.1089 27.4998 34.1089C31.5706 34.1089 34.8824 30.9199 34.8824 26.9998C34.8824 23.0797 31.5706 19.8906 27.4998 19.8906ZM27.4998 32.5847C24.3019 32.5847 21.7 30.0794 21.7 26.9998C21.7 23.9204 24.3019 21.4149 27.4998 21.4149C30.6978 21.4149 33.2995 23.9204 33.2995 26.9998C33.2995 30.0794 30.6978 32.5847 27.4998 32.5847Z" fill="white"/>
<path d="M35.0589 17.3662C33.8559 17.3662 32.8774 18.3086 32.8774 19.4669C32.8774 20.6253 33.8559 21.5678 35.0589 21.5678C36.2619 21.5678 37.2406 20.6253 37.2406 19.4669C37.2406 18.3084 36.2619 17.3662 35.0589 17.3662ZM35.0589 20.0433C34.7289 20.0433 34.4603 19.7847 34.4603 19.4669C34.4603 19.1489 34.7289 18.8904 35.0589 18.8904C35.3891 18.8904 35.6577 19.1489 35.6577 19.4669C35.6577 19.7847 35.3891 20.0433 35.0589 20.0433Z" fill="white"/>
</svg>
