<svg width="145" height="48" viewBox="0 0 145 48" fill="none" xmlns="http://www.w3.org/2000/svg">
<g clip-path="url(#clip0)">
<path d="M10.782 29.8782H6.38934V25.647H17.97V19.5H0V47.4412H10.782C16.4925 47.4412 20.3661 43.9685 20.3661 38.6596C20.3661 33.3509 16.4925 29.8782 10.782 29.8782ZM10.782 41.4538H6.38934V35.8656H10.782C12.5391 35.8656 13.9767 36.624 13.9767 38.6596C13.9767 40.6954 12.5391 41.4538 10.782 41.4538Z" fill="#FFF9F9"/>
<path d="M39.6523 27.4832V29.3592C38.3346 27.8424 36.3778 26.9244 33.7022 26.9244C28.471 26.9244 24.1582 31.5147 24.1582 37.4622C24.1582 43.4097 28.471 48 33.7022 48C36.3778 48 38.3346 47.082 39.6523 45.5651V47.4413H45.6423V27.4832H39.6523ZM34.9002 42.332C32.1449 42.332 30.1482 40.4559 30.1482 37.4622C30.1482 34.4685 32.1449 32.5925 34.9002 32.5925C37.6556 32.5925 39.6523 34.4685 39.6523 37.4622C39.6523 40.4559 37.6556 42.332 34.9002 42.332Z" fill="#FFF9F9"/>
<path d="M64.8119 27.4832V34.668H58.0232V27.4832H52.0332V47.4413H58.0232V40.2563H64.8119V47.4413H70.8019V27.4832H64.8119Z" fill="#FFF9F9"/>
<path d="M91.5703 27.4832L83.0245 37.4622V27.4832H77.1943V47.4413H81.5869L90.1327 37.4622V47.4413H95.963V27.4832H91.5703Z" fill="#FFF9F9"/>
<path d="M121.524 47.4413L114.056 37.4622L121.324 27.4832H114.335L108.345 36.2249V27.4832H102.355V47.4413H108.345V38.6198L114.735 47.4413H121.524Z" fill="#FFF9F9"/>
<path d="M139.01 27.4832V29.3592C137.692 27.8424 135.735 26.9244 133.06 26.9244C127.829 26.9244 123.516 31.5147 123.516 37.4622C123.516 43.4097 127.829 48 133.06 48C135.735 48 137.692 47.082 139.01 45.5651V47.4413H145V27.4832H139.01ZM134.258 42.332C131.502 42.332 129.506 40.4559 129.506 37.4622C129.506 34.4685 131.502 32.5925 134.258 32.5925C137.013 32.5925 139.01 34.4685 139.01 37.4622C139.01 40.4559 137.013 42.332 134.258 42.332Z" fill="#FFF9F9"/>
<path d="M106.134 15L124.072 3L142.01 15" stroke="#FFC46A" stroke-width="4" stroke-linecap="round" stroke-linejoin="round"/>
</g>
<defs>
<clipPath id="clip0">
<rect width="145" height="48" fill="white"/>
</clipPath>
</defs>
</svg>
